<svg xmlns="http://www.w3.org/2000/svg" viewBox="0 0 200 200" role="img" aria-label="Empower ADHD Solutions logo">
  <defs>
    <path id="arcTop" d="M 30 100 A 70 70 0 0 1 170 100" fill="none"/>
    <path id="arcBottom" d="M 22 100 A 78 78 0 0 0 178 100" fill="none"/>
  </defs>
  <circle cx="100" cy="100" r="62" fill="#4da9e0"/>
  <!-- profile silhouette -->
  <path d="M118 52 c14 4 24 16 26 30 c2 12 -2 22 -8 30 c-4 6 -6 12 -6 18 l0 14 l-24 0 l0 -10 c-10 2 -18 0 -22 -6 l10 -14 c-6 -10 -8 -24 -2 -36 c6 -14 14 -24 26 -26 z" fill="#0a0a0a"/>
  <!-- raised fist -->
  <g fill="#f5f5f5" stroke="#0a0a0a" stroke-width="2.5" stroke-linejoin="round">
    <rect x="86" y="96" width="34" height="46" rx="9"/>
    <rect x="87" y="84" width="10" height="18" rx="5"/>
    <rect x="98" y="80" width="10" height="22" rx="5"/>
    <rect x="109" y="82" width="10" height="20" rx="5"/>
    <rect x="78" y="104" width="13" height="24" rx="6.5" transform="rotate(-20 84 116)"/>
  </g>
  <text font-family="Arial Black, Arial, sans-serif" font-size="21" font-weight="900" fill="#ffffff" letter-spacing="4">
    <textPath href="#arcTop" startOffset="50%" text-anchor="middle">EMPOWER</textPath>
  </text>
  <text font-family="Arial Black, Arial, sans-serif" font-size="16" font-weight="900" fill="#ffffff" letter-spacing="2">
    <textPath href="#arcBottom" startOffset="50%" text-anchor="middle">ADHD SOLUTIONS</textPath>
  </text>
</svg>
